<svg width="82" height="82" viewBox="0 0 82 82" fill="none" xmlns="http://www.w3.org/2000/svg">
<circle cx="41" cy="41" r="41" fill="#9A3366"/>
<path fill-rule="evenodd" clip-rule="evenodd" d="M45.772 41.667C45.4962 40.887 44.9853 40.2117 44.3098 39.7341C43.6343 39.2565 42.8273 39 42 39V38H40V39C38.9391 39 37.9217 39.4214 37.1716 40.1716C36.4214 40.9217 36 41.9391 36 43C36 44.0609 36.4214 45.0783 37.1716 45.8284C37.9217 46.5786 38.9391 47 40 47V51C39.13 51 38.389 50.445 38.113 49.667C38.0721 49.5397 38.006 49.4219 37.9187 49.3206C37.8315 49.2193 37.7248 49.1365 37.605 49.0772C37.4851 49.0178 37.3546 48.9831 37.2212 48.9751C37.0877 48.967 36.954 48.9858 36.8279 49.0304C36.7018 49.0749 36.586 49.1443 36.4872 49.2344C36.3884 49.3245 36.3087 49.4335 36.2527 49.5549C36.1968 49.6764 36.1658 49.8078 36.1616 49.9415C36.1573 50.0751 36.1799 50.2082 36.228 50.333C36.5038 51.113 37.0147 51.7883 37.6902 52.2659C38.3657 52.7435 39.1727 53 40 53V54H42V53C43.0609 53 44.0783 52.5786 44.8284 51.8284C45.5786 51.0783 46 50.0609 46 49C46 47.9391 45.5786 46.9217 44.8284 46.1716C44.0783 45.4214 43.0609 45 42 45V41C42.87 41 43.611 41.555 43.886 42.333C43.9743 42.5831 44.1584 42.7879 44.3977 42.9023C44.5162 42.9589 44.6446 42.9917 44.7758 42.9987C44.9069 43.0056 45.0382 42.9867 45.162 42.943C45.2858 42.8993 45.3998 42.8316 45.4975 42.7438C45.5952 42.656 45.6746 42.5498 45.7313 42.4313C45.7879 42.3128 45.8207 42.1844 45.8277 42.0532C45.8346 41.9221 45.8157 41.7908 45.772 41.667V41.667ZM40 41C39.4696 41 38.9609 41.2107 38.5858 41.5858C38.2107 41.9609 38 42.4696 38 43C38 43.5304 38.2107 44.0391 38.5858 44.4142C38.9609 44.7893 39.4696 45 40 45V41ZM42 51C42.5304 51 43.0391 50.7893 43.4142 50.4142C43.7893 50.0391 44 49.5304 44 49C44 48.4696 43.7893 47.9609 43.4142 47.5858C43.0391 47.2107 42.5304 47 42 47V51Z" fill="white"/>
<path fill-rule="evenodd" clip-rule="evenodd" d="M30.153 25.621C32.607 24.42 36.633 23 41.039 23C45.353 23 49.273 24.361 51.714 25.546L51.852 25.613C52.588 25.977 53.182 26.321 53.6 26.6L49.906 32C58.422 40.706 65 58.997 41.039 58.997C17.078 58.997 23.479 41.038 32.069 32L28.399 26.6C28.682 26.415 29.041 26.2 29.469 25.972C29.681 25.858 29.909 25.741 30.153 25.622V25.621ZM47.532 31.928L50.489 27.605C47.739 27.803 44.467 28.449 41.317 29.361C39.067 30.011 36.567 29.912 34.252 29.485C33.6686 29.3768 33.0892 29.2481 32.515 29.099L34.435 31.926C38.55 33.391 43.416 33.391 47.532 31.928V31.928ZM33.28 33.63C38.095 35.49 43.882 35.49 48.697 33.628C50.7068 35.7467 52.3882 38.1544 53.685 40.771C55.037 43.529 55.773 46.286 55.653 48.662C55.537 50.955 54.635 52.914 52.575 54.37C50.428 55.887 46.817 56.997 41.038 56.997C35.253 56.997 31.625 55.906 29.458 54.406C27.383 52.968 26.472 51.036 26.343 48.774C26.208 46.424 26.928 43.681 28.275 40.904C29.56 38.256 31.353 35.707 33.28 33.63V33.63ZM32.13 26.916C32.93 27.154 33.766 27.361 34.614 27.518C36.764 27.914 38.92 27.972 40.76 27.439C42.9042 26.8143 45.085 26.3231 47.29 25.968C45.45 25.414 43.298 25 41.038 25C37.593 25 34.38 25.961 32.13 26.916V26.916Z" fill="white"/>
</svg>
