<svg width="82" height="82" viewBox="0 0 82 82" fill="none" xmlns="http://www.w3.org/2000/svg">
<circle cx="41" cy="41" r="41" fill="#9A3366"/>
<path d="M60.5 24.5H21.5C20.6703 24.5 20 25.1703 20 26V56C20 56.8297 20.6703 57.5 21.5 57.5H60.5C61.3297 57.5 62 56.8297 62 56V26C62 25.1703 61.3297 24.5 60.5 24.5ZM23.375 27.875H58.625V33.5H23.375V27.875ZM58.625 54.125H23.375V37.625H58.625V54.125ZM47.5156 51.125H55.25C55.4563 51.125 55.625 50.9563 55.625 50.75V47.375C55.625 47.1687 55.4563 47 55.25 47H47.5156C47.3094 47 47.1406 47.1687 47.1406 47.375V50.75C47.1406 50.9563 47.3094 51.125 47.5156 51.125Z" fill="white"/>
</svg>
