<svg width="82" height="82" viewBox="0 0 82 82" fill="none" xmlns="http://www.w3.org/2000/svg">
<circle cx="41" cy="41" r="41" fill="#9A3366"/>
<path d="M57.5 20C56.2014 19.9994 54.9377 20.4204 53.8988 21.1996C52.86 21.9788 52.1021 23.0741 51.7391 24.321C51.3761 25.5678 51.4275 26.8988 51.8858 28.1139C52.344 29.3289 53.1843 30.3624 54.2803 31.059L50.3651 44.7622C50.2435 44.7544 50.1218 44.7504 50 44.75C48.7094 44.7486 47.453 45.1656 46.4194 45.9386L39.1862 39.9109C39.5287 38.8949 39.5926 37.8057 39.3714 36.7566C39.1502 35.7075 38.6519 34.7368 37.9284 33.9456C37.2048 33.1544 36.2825 32.5715 35.2573 32.2575C34.2322 31.9436 33.1416 31.9101 32.0991 32.1605C31.0566 32.4109 30.1002 32.9361 29.3295 33.6815C28.5588 34.4268 28.0018 35.3651 27.7166 36.3986C27.4315 37.4321 27.4284 38.5232 27.7079 39.5583C27.9873 40.5934 28.539 41.5348 29.3055 42.2844L25.0594 50.777C24.8735 50.7593 24.6868 50.7503 24.5 50.75C23.0626 50.7482 21.6722 51.2617 20.5811 52.1975C19.4901 53.1333 18.7707 54.4293 18.5536 55.8502C18.3364 57.2711 18.636 58.7228 19.3978 59.9417C20.1596 61.1606 21.3332 62.066 22.7056 62.4935C24.0779 62.921 25.5581 62.8423 26.8773 62.2717C28.1966 61.701 29.2676 60.6763 29.8958 59.3834C30.5241 58.0906 30.6679 56.6153 30.3013 55.2255C29.9347 53.8356 29.082 52.6232 27.8978 51.8084L31.9103 43.7845C32.885 44.0534 33.9119 44.0709 34.8953 43.8356C35.8786 43.6002 36.7863 43.1196 37.5336 42.4386L44.5367 48.2747C44.0612 49.3227 43.897 50.4854 44.0639 51.624C44.2308 52.7627 44.7216 53.8294 45.4778 54.6969C46.2341 55.5643 47.2239 56.196 48.3292 56.5166C49.4345 56.8372 50.6086 56.8331 51.7117 56.5049C52.8147 56.1767 53.8001 55.5381 54.5504 54.6655C55.3006 53.7928 55.784 52.7227 55.943 51.5829C56.102 50.4431 55.9298 49.2816 55.447 48.2369C54.9642 47.1923 54.1911 46.3085 53.22 45.691L57.135 31.9878C57.2558 31.9951 57.3773 32 57.5 32C59.0913 32 60.6174 31.3679 61.7427 30.2426C62.8679 29.1174 63.5 27.5913 63.5 26C63.5 24.4087 62.8679 22.8826 61.7427 21.7574C60.6174 20.6321 59.0913 20 57.5 20V20ZM24.5 59.75C23.9067 59.75 23.3267 59.574 22.8333 59.2444C22.34 58.9148 21.9554 58.4462 21.7284 57.898C21.5013 57.3499 21.4419 56.7467 21.5577 56.1647C21.6734 55.5828 21.9591 55.0482 22.3787 54.6287C22.7983 54.2091 23.3328 53.9234 23.9147 53.8076C24.4967 53.6919 25.0999 53.7513 25.6481 53.9784C26.1962 54.2054 26.6648 54.5899 26.9944 55.0833C27.3241 55.5766 27.5 56.1567 27.5 56.75C27.4991 57.5454 27.1828 58.3079 26.6204 58.8703C26.0579 59.4327 25.2954 59.7491 24.5 59.75V59.75ZM33.5 41C32.9067 41 32.3267 40.824 31.8333 40.4944C31.34 40.1648 30.9554 39.6962 30.7284 39.148C30.5013 38.5999 30.4419 37.9967 30.5577 37.4147C30.6734 36.8328 30.9591 36.2982 31.3787 35.8787C31.7983 35.4591 32.3328 35.1734 32.9147 35.0576C33.4967 34.9419 34.0999 35.0013 34.6481 35.2284C35.1962 35.4554 35.6648 35.8399 35.9944 36.3333C36.3241 36.8266 36.5 37.4067 36.5 38C36.4991 38.7954 36.1828 39.5579 35.6203 40.1203C35.0579 40.6827 34.2954 40.9991 33.5 41ZM50 53.75C49.4067 53.75 48.8267 53.574 48.3333 53.2444C47.84 52.9148 47.4554 52.4462 47.2284 51.898C47.0013 51.3499 46.9419 50.7467 47.0577 50.1647C47.1734 49.5828 47.4591 49.0482 47.8787 48.6287C48.2983 48.2091 48.8328 47.9234 49.4147 47.8076C49.9967 47.6919 50.5999 47.7513 51.1481 47.9784C51.6962 48.2054 52.1648 48.5899 52.4944 49.0833C52.8241 49.5766 53 50.1567 53 50.75C52.9991 51.5454 52.6828 52.3079 52.1203 52.8703C51.5579 53.4327 50.7954 53.7491 50 53.75V53.75ZM57.5 29C56.9067 29 56.3266 28.8241 55.8333 28.4944C55.34 28.1648 54.9554 27.6962 54.7284 27.1481C54.5013 26.5999 54.4419 25.9967 54.5577 25.4147C54.6734 24.8328 54.9591 24.2982 55.3787 23.8787C55.7983 23.4591 56.3328 23.1734 56.9147 23.0576C57.4967 22.9419 58.0999 23.0013 58.6481 23.2284C59.1962 23.4554 59.6648 23.8399 59.9944 24.3333C60.3241 24.8266 60.5 25.4067 60.5 26C60.4991 26.7954 60.1828 27.5579 59.6203 28.1203C59.0579 28.6827 58.2954 28.9991 57.5 29Z" fill="white"/>
</svg>
